{"title":"The Skin I Live In [2011] 720p BRRip H264 AC3 - CODY","uid":6892603,"size":2478827831,"categoryP":"video","categoryS":"hd___movies","magnet":"?xt=urn:btih:15d38a305c12d6b08a448b24b8f479870440bfad&amp;dn=The+Skin+I+Live+In+%5B2011%5D+720p+BRRip+H264+AC3+-+CODY&amp;tr=udp%3A%2F%2Ftracker.openbittorrent.com%3A80&amp;tr=udp%3A%2F%2Fopen.demonii.com%3A1337&amp;tr=udp%3A%2F%2Ftracker.coppersurfer.tk%3A6969&amp;tr=udp%3A%2F%2Fexodus.desync.com%3A6969","seeders":2,"leechers":0,"uploader":"CODYBOSS1969","files":6,"time":1324071745,"description":"General\nComplete name                            : The Skin I Live In [2011] 720p BRRip H264 AC3 - CODY.mp4\nFormat                                   : MPEG-4\nFormat profile                           : Base Media\nCodec ID                                 : isom\nFile size                                : 2.31 GiB\nDuration                                 : 2h 0mn\nOverall bit rate                         : 2 750 Kbps\nEncoded date                             : UTC 2011-12-16 08:02:39\nTagged date                              : UTC 2011-12-16 08:02:39\n\nVideo\nID                                       : 1\nFormat                                   : AVC\nFormat/Info                              : Advanced Video Codec\nFormat profile                           : &lt;a class=&quot;__cf_email__&quot; href=&quot;/cdn-cgi/l/email-protection&quot; data-cfemail=&quot;f1b9989699b1bdc5dfc0&quot;&gt;[email&amp;#160;protected]&lt;/a&gt;&lt;script cf-hash='f9e31' type=&quot;text/javascript&quot;&gt;\n/* &lt;![CDATA[ */!function(){try{var t=&quot;currentScript&quot;in document?document.currentScript:function(){for(var t=document.getElementsByTagName(&quot;script&quot;),e=t.length;e--;)if(t[e].getAttribute(&quot;cf-hash&quot;))return t[e]}();if(t&amp;&amp;t.previousSibling){var e,r,n,i,c=t.previousSibling,a=c.getAttribute(&quot;data-cfemail&quot;);if(a){for(e=&quot;&quot;,r=parseInt(a.substr(0,2),16),n=2;a.length-n;n+=2)i=parseInt(a.substr(n,2),16)^r,e+=String.fromCharCode(i);e=document.createTextNode(e),c.parentNode.replaceChild(e,c)}}}catch(u){}}();/* ]]&gt; */&lt;/script&gt;\nFormat settings, CABAC                   : Yes\nFormat settings, ReFrames                : 4 frames\nCodec ID                                 : avc1\nCodec ID/Info                            : Advanced Video Coding\nDuration                                 : 2h 0mn\nBit rate                                 : 2 300 Kbps\nMaximum bit rate                         : 14.5 Mbps\nWidth                                    : 1 280 pixels\nHeight                                   : 688 pixels\nDisplay aspect ratio                     : 1.860\nFrame rate mode                          : Constant\nFrame rate                               : 24.000 fps\nColor space                              : YUV\nChroma subsampling                       : 4:2:0\nBit depth                                : 8 bits\nScan type                                : Progressive\nBits/(Pixel*Frame)                       : 0.109\nStream size                              : 1.93 GiB (84%)\nWriting library                          : x264 core 119 r2106 07efeb4\nEncoding settings                        : cabac=1 / ref=4 / deblock=1:0:0 /\n analyse=0x3:0x113 / me=umh / subme=9 / psy=1 / psy_rd=1.00:1.00 / mixed_ref=1 / \nme_range=16 / chroma_me=1 / trellis=2 / 8x8dct=1 / cqm=0 / deadzone=21,11 /\n fast_pskip=0 / chroma_qp_offset=-6 / threads=12 / sliced_threads=0 / nr=0 / \ndecimate=1 / interlaced=0 / bluray_compat=0 / constrained_intra=0 / bframes=3 /\n b_pyramid=2 / b_adapt=2 / b_bias=0 / direct=3 / weightb=1 / open_gop=0 /\n weightp=2 / keyint=250 / keyint_min=23 / scenecut=40 / intra_refresh=0 / \nrc_lookahead=50 / rc=2pass / mbtree=1 / bitrate=2300 / ratetol=1.0 / qcomp=0.85 /\n qpmin=10 / qpmax=51 / qpstep=4 / cplxblur=20.0 / qblur=0.5 /\n vbv_maxrate=40000 / vbv_bufsize=40000 / nal_hrd=none / ip_ratio=1.40 / aq=1:1.00\nEncoded date                             : UTC 2011-12-16 08:02:39\nTagged date                              : UTC 2011-12-16 08:02:55\n\nAudio\nID                                       : 2\nFormat                                   : AC-3\nFormat/Info                              : Audio Coding 3\nMode extension                           : CM (complete main)\nCodec ID                                 : ac-3\nDuration                                 : 2h 0mn\nBit rate mode                            : Constant\nBit rate                                 : 448 Kbps\nChannel(s)                               : 6 channels\nChannel positions                        : Front: L C R, Side: L R, LFE\nSampling rate                            : 48.0 KHz\nBit depth                                : 16 bits\nCompression mode                         : Lossy\nStream size                              : 385 MiB (16%)\nEncoded date                             : UTC 2011-12-16 08:02:52\nTagged date                              : UTC 2011-12-16 08:02:55\n\n\n\n\n\nIMDB link:                                &lt;a href=&quot; http://www.imdb.com/title/tt1189073/&quot; rel=&quot;nofollow&quot; target=&quot;_NEW&quot;&gt; http://www.imdb.com/title/tt1189073/&lt;/a&gt;\n\n\n\n\nSubtitles included                       : English, Romanian\n\n\n\n\nPlease seed at least 1,5:1. This way this torrent has a chance to survive !\n\n\n\n\nThanks. Enjoy !\n","torrent":{"xt":"urn:btih:15d38a305c12d6b08a448b24b8f479870440bfad","amp;dn":"The+Skin+I+Live+In+%5B2011%5D+720p+BRRip+H264+AC3+-+CODY","amp;tr":["udp%3A%2F%2Ftracker.openbittorrent.com%3A80","udp%3A%2F%2Fopen.demonii.com%3A1337","udp%3A%2F%2Ftracker.coppersurfer.tk%3A6969","udp%3A%2F%2Fexodus.desync.com%3A6969"],"infoHash":"15d38a305c12d6b08a448b24b8f479870440bfad","infoHashBuffer":{"type":"Buffer","data":[21,211,138,48,92,18,214,176,138,68,139,36,184,244,121,135,4,64,191,173]},"announce":[],"urlList":[]}}